<?xml version="1.0" encoding="UTF-8" standalone="no"?><svg xmlns="http://www.w3.org/2000/svg" xmlns:xlink="http://www.w3.org/1999/xlink" contentScriptType="application/ecmascript" contentStyleType="text/css" height="980px" preserveAspectRatio="none" style="width:1157px;height:980px;" version="1.1" viewBox="0 0 1157 980" width="1157px" zoomAndPan="magnify"><defs/><g><!--MD5=[a6f11bb19cee6b13000111f5ad685e8b]
cluster Dependencies--><path d="M1016.61,485.404 L1118.61,485.404 A4.5,4.5 0 0 1 1121.61,488.404 L1128.61,505.3728 L1142.61,505.3728 A3,3 0 0 1 1145.61,508.3728 L1145.61,670.404 A3,3 0 0 1 1142.61,673.404 L1016.61,673.404 A3,3 0 0 1 1013.61,670.404 L1013.61,488.404 A3,3 0 0 1 1016.61,485.404 " fill="#FFFFFF" style="stroke: #000000; stroke-width: 1.5;"/><line style="stroke: #000000; stroke-width: 1.5;" x1="1013.61" x2="1128.61" y1="505.3728" y2="505.3728"/><text fill="#000000" font-family="Tahoma, sans-serif" font-size="12" font-weight="bold" lengthAdjust="spacingAndGlyphs" textLength="102" x="1017.61" y="498.5427">Dependencies</text><!--MD5=[4338c09a15799736a91657b0a0d395f6]
entity @sprucelabs--><rect fill="#F8F8F8" height="33.9688" rx="3" ry="3" style="stroke: #383838; stroke-width: 1.0;" width="100" x="1029.61" y="623.404"/><rect fill="#F8F8F8" height="5" style="stroke: #383838; stroke-width: 1.0;" width="10" x="1024.61" y="628.404"/><rect fill="#F8F8F8" height="5" style="stroke: #383838; stroke-width: 1.0;" width="10" x="1024.61" y="647.3728"/><text fill="#000000" font-family="Tahoma, sans-serif" font-size="12" lengthAdjust="spacingAndGlyphs" textLength="80" x="1039.61" y="644.5427">@sprucelabs</text><!--MD5=[b84d8dbe3cf51322a9824c71d57d534f]
entity dotenv--><rect fill="#F8F8F8" height="33.9688" rx="3" ry="3" style="stroke: #383838; stroke-width: 1.0;" width="63" x="1048.11" y="517.404"/><rect fill="#F8F8F8" height="5" style="stroke: #383838; stroke-width: 1.0;" width="10" x="1043.11" y="522.404"/><rect fill="#F8F8F8" height="5" style="stroke: #383838; stroke-width: 1.0;" width="10" x="1043.11" y="541.3728"/><text fill="#000000" font-family="Tahoma, sans-serif" font-size="12" lengthAdjust="spacingAndGlyphs" textLength="43" x="1058.11" y="538.5427">dotenv</text><!--MD5=[7d7b93d3e4e8ec15794174f8d551fc64]
entity jira-client--><rect fill="#F8F8F8" height="33.9688" rx="3" ry="3" style="stroke: #383838; stroke-width: 1.0;" width="77" x="1041.11" y="570.404"/><rect fill="#F8F8F8" height="5" style="stroke: #383838; stroke-width: 1.0;" width="10" x="1036.11" y="575.404"/><rect fill="#F8F8F8" height="5" style="stroke: #383838; stroke-width: 1.0;" width="10" x="1036.11" y="594.3728"/><text fill="#000000" font-family="Tahoma, sans-serif" font-size="12" lengthAdjust="spacingAndGlyphs" textLength="57" x="1051.11" y="591.5427">jira-client</text><ellipse cx="180.3597" cy="739.2814" fill="#F8F8F8" rx="27.7487" ry="12.8774" style="stroke: #383838; stroke-width: 0.5;"/><text fill="#000000" font-family="Tahoma, sans-serif" font-size="12" font-weight="bold" lengthAdjust="spacingAndGlyphs" textLength="35" x="162.8597" y="742.7658">build</text><ellipse cx="179.9677" cy="641.3753" fill="#F8F8F8" rx="60.3567" ry="14.4713" style="stroke: #383838; stroke-width: 0.5;"/><text fill="#000000" font-family="Tahoma, sans-serif" font-size="12" font-weight="bold" lengthAdjust="spacingAndGlyphs" textLength="91" x="134.4677" y="644.8597">build/index.d</text><ellipse cx="180.0717" cy="222.4961" fill="#F8F8F8" rx="88.4607" ry="20.0921" style="stroke: #383838; stroke-width: 0.5;"/><text fill="#000000" font-family="Tahoma, sans-serif" font-size="12" font-weight="bold" lengthAdjust="spacingAndGlyphs" textLength="156" x="102.0717" y="225.9805">build/integrationTest</text><ellipse cx="180.0429" cy="29.1904" fill="#F8F8F8" rx="94.4319" ry="21.2864" style="stroke: #383838; stroke-width: 0.5;"/><text fill="#000000" font-family="Tahoma, sans-serif" font-size="12" font-weight="bold" lengthAdjust="spacingAndGlyphs" textLength="169" x="95.5429" y="32.6747">build/integrationTest.d</text><ellipse cx="180.1075" cy="691.6033" fill="#F8F8F8" rx="68.9965" ry="16.1993" style="stroke: #383838; stroke-width: 0.5;"/><text fill="#000000" font-family="Tahoma, sans-serif" font-size="12" lengthAdjust="spacingAndGlyphs" textLength="112" x="124.1075" y="695.0877">build/JestReporter</text><!--MD5=[27fd9cee633d5cb34f5377ea7f1ffdf6]
entity _build_JestReporter_d--><rect fill="#F8F8F8" height="33.9688" rx="3" ry="3" style="stroke: #000000; stroke-width: 0.5;" width="166" x="657.611" y="407.404"/><text fill="#000000" font-family="Tahoma, sans-serif" font-size="12" font-weight="bold" lengthAdjust="spacingAndGlyphs" textLength="146" x="667.611" y="428.5427">build/JestReporter.d</text><ellipse cx="740.5718" cy="475.2962" fill="#F8F8F8" rx="59.9608" ry="14.3922" style="stroke: #383838; stroke-width: 0.5;"/><text fill="#000000" font-family="Tahoma, sans-serif" font-size="12" lengthAdjust="spacingAndGlyphs" textLength="90" x="695.5718" y="478.7805">build/jira.types</text><!--MD5=[dc631958be9344bad5432cb02dd151b2]
entity _build_jira_types_d--><rect fill="#F8F8F8" height="33.9688" rx="3" ry="3" style="stroke: #000000; stroke-width: 0.5;" width="141" x="109.611" y="70.404"/><text fill="#000000" font-family="Tahoma, sans-serif" font-size="12" font-weight="bold" lengthAdjust="spacingAndGlyphs" textLength="121" x="119.611" y="91.5427">build/jira.types.d</text><ellipse cx="487.885" cy="694.3588" fill="#F8F8F8" rx="70.274" ry="16.4548" style="stroke: #383838; stroke-width: 0.5;"/><text fill="#000000" font-family="Tahoma, sans-serif" font-size="12" lengthAdjust="spacingAndGlyphs" textLength="115" x="430.385" y="697.8432">errors/SpruceError</text><!--MD5=[0df72be079b7be722000360c8a62aa36]
entity _errors_SpruceError--><rect fill="#F8F8F8" height="33.9688" rx="3" ry="3" style="stroke: #000000; stroke-width: 0.5;" width="135" x="420.611" y="903.4039"/><text fill="#000000" font-family="Tahoma, sans-serif" font-size="12" lengthAdjust="spacingAndGlyphs" textLength="115" x="430.611" y="924.5426">errors/SpruceError</text><!--MD5=[8f883dc3c2ef28ef82b5a7d9e72891d4]
entity _errors_SpruceError_d--><rect fill="#F8F8F8" height="33.9688" rx="3" ry="3" style="stroke: #000000; stroke-width: 0.5;" width="173" x="401.611" y="771.404"/><text fill="#000000" font-family="Tahoma, sans-serif" font-size="12" font-weight="bold" lengthAdjust="spacingAndGlyphs" textLength="153" x="411.611" y="792.5427">errors/SpruceError.d</text><ellipse cx="487.916" cy="854.2649" fill="#F8F8F8" rx="132.305" ry="28.861" style="stroke: #383838; stroke-width: 0.5;"/><text fill="#000000" font-family="Tahoma, sans-serif" font-size="12" font-weight="bold" lengthAdjust="spacingAndGlyphs" textLength="249" x="363.416" y="857.7493">errors/transitionNotFound.builder</text><ellipse cx="180.1858" cy="153.519" fill="#F8F8F8" rx="138.5748" ry="30.115" style="stroke: #383838; stroke-width: 0.5;"/><text fill="#000000" font-family="Tahoma, sans-serif" font-size="12" font-weight="bold" lengthAdjust="spacingAndGlyphs" textLength="262" x="49.1858" y="157.0033">errors/transitionNotFound.builder.d</text><ellipse cx="180.1171" cy="491.2814" fill="#F8F8F8" rx="23.5061" ry="12.8774" style="stroke: #383838; stroke-width: 0.5;"/><text fill="#000000" font-family="Tahoma, sans-serif" font-size="12" font-weight="bold" lengthAdjust="spacingAndGlyphs" textLength="29" x="165.6171" y="494.7658">esm</text><ellipse cx="180.1182" cy="588.4054" fill="#F8F8F8" rx="58.0072" ry="14.0014" style="stroke: #383838; stroke-width: 0.5;"/><text fill="#000000" font-family="Tahoma, sans-serif" font-size="12" font-weight="bold" lengthAdjust="spacingAndGlyphs" textLength="85" x="137.6182" y="591.8898">esm/index.d</text><ellipse cx="180.3427" cy="281.4503" fill="#F8F8F8" rx="85.7317" ry="19.5463" style="stroke: #383838; stroke-width: 0.5;"/><text fill="#000000" font-family="Tahoma, sans-serif" font-size="12" font-weight="bold" lengthAdjust="spacingAndGlyphs" textLength="150" x="105.3427" y="284.9347">esm/integrationTest</text><ellipse cx="488.2777" cy="29.6373" fill="#F8F8F8" rx="91.6667" ry="20.7333" style="stroke: #383838; stroke-width: 0.5;"/><text fill="#000000" font-family="Tahoma, sans-serif" font-size="12" font-weight="bold" lengthAdjust="spacingAndGlyphs" textLength="163" x="406.7777" y="33.1217">esm/integrationTest.d</text><ellipse cx="180.3396" cy="539.3497" fill="#F8F8F8" rx="67.7286" ry="15.9457" style="stroke: #383838; stroke-width: 0.5;"/><text fill="#000000" font-family="Tahoma, sans-serif" font-size="12" lengthAdjust="spacingAndGlyphs" textLength="109" x="125.8396" y="542.8341">esm/JestReporter</text><!--MD5=[6cbc58d26f473fd5e2a883305ffd7364]
entity _esm_JestReporter_d--><rect fill="#F8F8F8" height="33.9688" rx="3" ry="3" style="stroke: #000000; stroke-width: 0.5;" width="160" x="408.111" y="538.404"/><text fill="#000000" font-family="Tahoma, sans-serif" font-size="12" font-weight="bold" lengthAdjust="spacingAndGlyphs" textLength="140" x="418.111" y="559.5427">esm/JestReporter.d</text><ellipse cx="487.8944" cy="605.5607" fill="#F8F8F8" rx="58.7834" ry="14.1567" style="stroke: #383838; stroke-width: 0.5;"/><text fill="#000000" font-family="Tahoma, sans-serif" font-size="12" lengthAdjust="spacingAndGlyphs" textLength="87" x="444.3944" y="609.0451">esm/jira.types</text><!--MD5=[7a4852f9aa04441ddd72bba2fa066470]
entity _esm_jira_types_d--><rect fill="#F8F8F8" height="33.9688" rx="3" ry="3" style="stroke: #000000; stroke-width: 0.5;" width="135" x="420.611" y="69.404"/><text fill="#000000" font-family="Tahoma, sans-serif" font-size="12" font-weight="bold" lengthAdjust="spacingAndGlyphs" textLength="115" x="430.611" y="90.5427">esm/jira.types.d</text><ellipse cx="926.6648" cy="617.5148" fill="#F8F8F8" rx="66.0538" ry="15.6108" style="stroke: #383838; stroke-width: 0.5;"/><text fill="#000000" font-family="Tahoma, sans-serif" font-size="12" font-weight="bold" lengthAdjust="spacingAndGlyphs" textLength="105" x="874.1648" y="620.9991">release.config</text><ellipse cx="179.8745" cy="443.2814" fill="#F8F8F8" rx="19.2635" ry="12.8774" style="stroke: #383838; stroke-width: 0.5;"/><text fill="#000000" font-family="Tahoma, sans-serif" font-size="12" font-weight="bold" lengthAdjust="spacingAndGlyphs" textLength="23" x="168.3745" y="446.7658">src</text><ellipse cx="180.1331" cy="339.4084" fill="#F8F8F8" rx="83.0221" ry="19.0044" style="stroke: #383838; stroke-width: 0.5;"/><text fill="#000000" font-family="Tahoma, sans-serif" font-size="12" font-weight="bold" lengthAdjust="spacingAndGlyphs" textLength="144" x="108.1331" y="342.8928">src/integrationTest</text><!--MD5=[57b766a0a74f204c2cbbf580bd67b636]
entity _src_JestReporter--><rect fill="#F8F8F8" height="33.9688" rx="3" ry="3" style="stroke: #000000; stroke-width: 0.5;" width="122" x="119.111" y="377.404"/><text fill="#000000" font-family="Tahoma, sans-serif" font-size="12" lengthAdjust="spacingAndGlyphs" textLength="102" x="129.111" y="398.5427">src/JestReporter</text><!--MD5=[fc0224e360d51950347df3be1a9f23d2]
entity _src_jira_types--><rect fill="#F8F8F8" height="33.9688" rx="3" ry="3" style="stroke: #000000; stroke-width: 0.5;" width="100" x="438.111" y="407.404"/><text fill="#000000" font-family="Tahoma, sans-serif" font-size="12" lengthAdjust="spacingAndGlyphs" textLength="80" x="448.111" y="428.5427">src/jira.types</text><!--MD5=[ef40ecbcff05783c98338193da598efd]
link <b>build</b> to build/JestReporter--><path d="M180.111,726.279 C180.111,721.775 180.111,717.271 180.111,712.767 " fill="none" id="&lt;b&gt;build&lt;/b&gt;-&gt;build/JestReporter" style="stroke: #000000; stroke-width: 1.0;"/><polygon fill="#000000" points="180.111,707.479,176.111,716.479,180.111,712.479,184.111,716.479,180.111,707.479" style="stroke: #000000; stroke-width: 1.0;"/><!--MD5=[0ac39b75e041dfa15922881eedbb35f0]
link <b>build/index.d</b> to build/JestReporter--><path d="M180.111,656.007 C180.111,660.751 180.111,665.496 180.111,670.24 " fill="none" id="&lt;b&gt;build/index.d&lt;/b&gt;-&gt;build/JestReporter" style="stroke: #000000; stroke-width: 1.0;"/><polygon fill="#000000" points="180.111,675.388,184.111,666.388,180.111,670.388,176.111,666.388,180.111,675.388" style="stroke: #000000; stroke-width: 1.0;"/><!--MD5=[407047673b4ad86c99155929f35e297a]
link <b>build/integrationTest</b> to build/JestReporter--><path d="M91.3374,222.03 C64.1072,226.983 37.539,238.276 23.1111,261.904 C0.2963,299.267 0.2963,618.541 23.1111,655.904 C40.5985,684.542 76.2219,694.125 109.121,696.228 " fill="none" id="&lt;b&gt;build/integrationTest&lt;/b&gt;-&gt;build/JestReporter" style="stroke: #000000; stroke-width: 1.0;"/><polygon fill="#000000" points="114.374,696.503,105.5955,692.0379,109.3808,696.2416,105.1772,700.0269,114.374,696.503" style="stroke: #000000; stroke-width: 1.0;"/><!--MD5=[1a38e77983d2c967f71f9dc037475054]
link <b>build/integrationTest</b> to dotenv--><path d="M261.857,214.599 C445.184,198.716 885.264,171.516 992.611,264.404 C1067.78,329.449 1077.87,460.022 1078.78,512.158 " fill="none" id="&lt;b&gt;build/integrationTest&lt;/b&gt;-&gt;dotenv" style="stroke: #000000; stroke-width: 1.0;"/><polygon fill="#000000" points="1078.84,517.246,1082.7266,508.1964,1078.7771,512.2464,1074.7272,508.297,1078.84,517.246" style="stroke: #000000; stroke-width: 1.0;"/><!--MD5=[ee5a6964669aeadf53b640d508d7b1f6]
link build/JestReporter to @sprucelabs--><path d="M231.614,702.06 C266.31,708.822 313.527,716.931 355.611,720.404 C637.916,743.702 724.525,790.885 992.611,699.404 C1016.47,691.264 1039.81,674.531 1056.14,660.958 " fill="none" id="build/JestReporter-&gt;@sprucelabs" style="stroke: #000000; stroke-width: 0.5;"/><polygon fill="#000000" points="1060.14,657.582,1050.6782,660.3159,1056.3142,660.8012,1055.8289,666.4372,1060.14,657.582" style="stroke: #000000; stroke-width: 0.5;"/><!--MD5=[266404b28468cdef5b13743708ee08c3]
link build/JestReporter to errors/SpruceError--><path d="M249.403,692.073 C297.766,692.548 362.619,693.183 412.368,693.671 " fill="none" id="build/JestReporter-&gt;errors/SpruceError" style="stroke: #000000; stroke-width: 0.5;"/><polygon fill="#000000" points="417.439,693.721,408.4783,689.6338,412.4392,693.6724,408.4006,697.6334,417.439,693.721" style="stroke: #000000; stroke-width: 0.5;"/><!--MD5=[913ac448a1b1f5f3410e854274235801]
link build/JestReporter to jira-client--><path d="M248.992,692.968 C273.632,690.131 299.966,682.635 318.611,665.404 C364.614,622.888 308.368,570.538 355.611,529.404 C445.165,451.43 527.317,568.862 620.611,495.404 C656.863,466.86 619.613,424.579 657.611,398.404 C719.332,355.888 942.954,381.268 992.611,437.404 C1029.33,478.909 971.35,517.851 1005.611,561.404 C1013.11,570.934 1024.37,576.976 1035.83,580.805 " fill="none" id="build/JestReporter-&gt;jira-client" style="stroke: #000000; stroke-width: 0.5;"/><polygon fill="#000000" points="1040.73,582.314,1033.3051,575.8432,1035.9513,580.843,1030.9515,583.4891,1040.73,582.314" style="stroke: #000000; stroke-width: 0.5;"/><!--MD5=[937ff36efc5d96ad286e848f6ae133bf]
link _build_JestReporter_d to build/jira.types--><path d="M740.611,441.683 C740.611,446.329 740.611,450.975 740.611,455.62 " fill="none" id="_build_JestReporter_d-&gt;build/jira.types" style="stroke: #000000; stroke-width: 1.0;"/><polygon fill="#000000" points="740.611,460.662,744.611,451.662,740.611,455.662,736.611,451.662,740.611,460.662" style="stroke: #000000; stroke-width: 1.0;"/><!--MD5=[1603e04d364a410901094f3d332cebdf]
link _build_JestReporter_d to jira-client--><path d="M823.72,420.465 C879.223,422.499 949.919,435.053 992.611,480.404 C1017.6,506.952 982.293,533.374 1005.611,561.404 C1013.37,570.725 1024.71,576.706 1036.15,580.542 " fill="none" id="_build_JestReporter_d-&gt;jira-client" style="stroke: #000000; stroke-width: 1.0;"/><polygon fill="#000000" points="1041.05,582.059,1033.6268,575.5863,1036.2717,580.5868,1031.2712,583.2316,1041.05,582.059" style="stroke: #000000; stroke-width: 1.0;"/><!--MD5=[f804fe8f1588e4998d8477875e91c7ea]
link errors/SpruceError to @sprucelabs--><path d="M555.23,699.512 C652.38,705.346 838.828,710.162 992.611,676.404 C1008.95,672.818 1026.1,666.263 1040.76,659.719 " fill="none" id="errors/SpruceError-&gt;@sprucelabs" style="stroke: #000000; stroke-width: 0.5;"/><polygon fill="#000000" points="1045.63,657.505,1035.7815,657.5924,1041.0791,659.5762,1039.0954,664.8738,1045.63,657.505" style="stroke: #000000; stroke-width: 0.5;"/><!--MD5=[1da76caea9617b3244d898bace2d6ddc]
link _errors_SpruceError to @sprucelabs--><path d="M553.666,937.4655 C657.652,955.5241 863.608,968.2311 992.611,868.4039 C1058.09,817.735 1073.79,710.016 1077.49,662.881 " fill="none" id="_errors_SpruceError-&gt;@sprucelabs" style="stroke: #000000; stroke-width: 0.5;"/><polygon fill="#000000" points="1077.87,657.709,1073.2273,666.3949,1077.5071,662.6958,1081.2062,666.9756,1077.87,657.709" style="stroke: #000000; stroke-width: 0.5;"/><!--MD5=[1da76caea9617b3244d898bace2d6ddc]
link _errors_SpruceError to @sprucelabs--><path d="M555.785,925.8852 C660.428,936.6905 864.479,948.5575 992.611,849.404 C1053.3,802.441 1071.23,706.468 1076.47,662.659 " fill="none" id="_errors_SpruceError-&gt;@sprucelabs-1" style="stroke: #000000; stroke-width: 0.5;"/><polygon fill="#000000" points="1077.05,657.582,1072.0557,666.0706,1076.4833,662.5498,1080.0041,666.9774,1077.05,657.582" style="stroke: #000000; stroke-width: 0.5;"/><!--MD5=[3c2162c0c2802b1c2922e3b11ee1c244]
link _errors_SpruceError_d to @sprucelabs--><path d="M550.92,805.411 C650.594,823.943 850.057,840.535 992.611,763.404 C1033.01,741.545 1059.98,691.611 1071.8,662.28 " fill="none" id="_errors_SpruceError_d-&gt;@sprucelabs" style="stroke: #000000; stroke-width: 1.0;"/><polygon fill="#000000" points="1073.7,657.405,1066.704,664.3373,1071.8838,662.0635,1074.1576,667.2432,1073.7,657.405" style="stroke: #000000; stroke-width: 1.0;"/><!--MD5=[3c2162c0c2802b1c2922e3b11ee1c244]
link _errors_SpruceError_d to @sprucelabs--><path d="M574.734,796.161 C679.93,806.892 860.653,815.802 992.611,744.404 C1026.89,725.856 1051.5,687.095 1065.39,662.259 " fill="none" id="_errors_SpruceError_d-&gt;@sprucelabs-1" style="stroke: #000000; stroke-width: 1.0;"/><polygon fill="#000000" points="1067.86,657.791,1060.003,663.7296,1065.4394,662.166,1067.003,667.6025,1067.86,657.791" style="stroke: #000000; stroke-width: 1.0;"/><!--MD5=[2313db05f117b516ec4c47ed94255007]
link <b>errors/transitionNotFound.builder</b> to @sprucelabs--><path d="M559.901,878.8828 C664.164,899.4998 860.876,910.1503 992.611,821.404 C1046.55,785.064 1069.17,703.578 1076.1,662.475 " fill="none" id="&lt;b&gt;errors/transitionNotFound.builder&lt;/b&gt;-&gt;@sprucelabs" style="stroke: #000000; stroke-width: 1.0;"/><polygon fill="#000000" points="1076.91,657.429,1071.5444,665.6879,1076.1237,662.3668,1079.4448,666.9461,1076.91,657.429" style="stroke: #000000; stroke-width: 1.0;"/><!--MD5=[2313db05f117b516ec4c47ed94255007]
link <b>errors/transitionNotFound.builder</b> to @sprucelabs--><path d="M597.184,870.8936 C706.376,881.6405 875.27,881.4533 992.611,802.404 C1041.82,769.253 1064.96,698.534 1073.9,662.499 " fill="none" id="&lt;b&gt;errors/transitionNotFound.builder&lt;/b&gt;-&gt;@sprucelabs-1" style="stroke: #000000; stroke-width: 1.0;"/><polygon fill="#000000" points="1075.12,657.443,1069.1214,665.2543,1073.9477,662.3036,1076.8984,667.13,1075.12,657.443" style="stroke: #000000; stroke-width: 1.0;"/><!--MD5=[2313db05f117b516ec4c47ed94255007]
link <b>errors/transitionNotFound.builder</b> to @sprucelabs--><path d="M619.822,857.7212 C728.701,862.2639 883.105,857.1751 992.611,783.404 C1035.98,754.189 1059.1,695.795 1070.1,662.694 " fill="none" id="&lt;b&gt;errors/transitionNotFound.builder&lt;/b&gt;-&gt;@sprucelabs-2" style="stroke: #000000; stroke-width: 1.0;"/><polygon fill="#000000" points="1071.76,657.607,1065.1627,664.9197,1070.2071,662.3598,1072.7671,667.4042,1071.76,657.607" style="stroke: #000000; stroke-width: 1.0;"/><!--MD5=[a86289e2d9fc8dda6f64a87f48c63797]
link <b>esm</b> to esm/JestReporter--><path d="M180.111,504.851 C180.111,509.266 180.111,513.681 180.111,518.096 " fill="none" id="&lt;b&gt;esm&lt;/b&gt;-&gt;esm/JestReporter" style="stroke: #000000; stroke-width: 1.0;"/><polygon fill="#000000" points="180.111,523.279,184.111,514.279,180.111,518.279,176.111,514.279,180.111,523.279" style="stroke: #000000; stroke-width: 1.0;"/><!--MD5=[471ee2750ba815a7e9c76c120efd1761]
link <b>esm/index.d</b> to esm/JestReporter--><path d="M180.111,574.24 C180.111,569.741 180.111,565.242 180.111,560.743 " fill="none" id="&lt;b&gt;esm/index.d&lt;/b&gt;-&gt;esm/JestReporter" style="stroke: #000000; stroke-width: 1.0;"/><polygon fill="#000000" points="180.111,555.461,176.111,564.461,180.111,560.461,184.111,564.461,180.111,555.461" style="stroke: #000000; stroke-width: 1.0;"/><!--MD5=[093dc8d443089ac9b0019d976555a3b8]
link <b>esm/integrationTest</b> to dotenv--><path d="M255.431,272.1 C434.087,251.425 881.1,210.26 992.611,300.404 C1059.21,354.245 1074.24,464.656 1077.62,512.018 " fill="none" id="&lt;b&gt;esm/integrationTest&lt;/b&gt;-&gt;dotenv" style="stroke: #000000; stroke-width: 1.0;"/><polygon fill="#000000" points="1077.97,517.207,1081.3669,507.9625,1077.6398,512.2179,1073.3843,508.4908,1077.97,517.207" style="stroke: #000000; stroke-width: 1.0;"/><!--MD5=[f776dd94b1f41437c41cf4daec904d09]
link <b>esm/integrationTest</b> to esm/JestReporter--><path d="M94.6573,280.458 C66.2851,285.086 38.1249,296.316 23.1111,320.904 C1.8018,355.801 1.8018,470.007 23.1111,504.904 C40.989,534.182 77.8966,543.297 111.437,544.863 " fill="none" id="&lt;b&gt;esm/integrationTest&lt;/b&gt;-&gt;esm/JestReporter" style="stroke: #000000; stroke-width: 1.0;"/><polygon fill="#000000" points="116.788,545.051,107.9341,540.7372,111.7911,544.8753,107.653,548.7323,116.788,545.051" style="stroke: #000000; stroke-width: 1.0;"/><!--MD5=[29b17ff96fca156a6010ab09ef4a3d39]
link esm/JestReporter to @sprucelabs--><path d="M247.522,540.608 C271.698,543.827 298.099,550.86 318.611,565.404 C345.414,584.407 327.152,612.984 355.611,629.404 C453.075,685.637 748.417,601.001 860.611,592.404 C919.106,587.921 941.657,563.328 992.611,592.404 C1002.475,598.033 996.849,607.178 1005.611,614.404 C1011.26,619.064 1017.81,622.917 1024.62,626.097 " fill="none" id="esm/JestReporter-&gt;@sprucelabs" style="stroke: #000000; stroke-width: 0.5;"/><polygon fill="#000000" points="1029.37,628.192,1022.7643,620.8869,1024.7993,626.165,1019.5211,628.2,1029.37,628.192" style="stroke: #000000; stroke-width: 0.5;"/><!--MD5=[4def5a197341134200667709c60f5f39]
link esm/JestReporter to _errors_SpruceError--><path d="M246.175,535.984 C272.234,538.193 300.349,545.727 318.611,565.404 C418.407,672.932 256.658,785.099 355.611,893.4039 C370.811,910.0399 393.287,917.961 415.375,921.3771 " fill="none" id="esm/JestReporter-&gt;_errors_SpruceError" style="stroke: #000000; stroke-width: 0.5;"/><polygon fill="#000000" points="420.377,922.0767,412.0166,916.8705,415.425,921.3852,410.9103,924.7936,420.377,922.0767" style="stroke: #000000; stroke-width: 0.5;"/><!--MD5=[eb6022dbcd47e4c39e018bc41381b8ec]
link esm/JestReporter to jira-client--><path d="M240.962,532.441 C265.448,528.589 293.797,522.824 318.611,514.404 C336.117,508.464 338.061,501.21 355.611,495.404 C468.96,457.908 526.78,525.226 620.611,451.404 C653.634,425.423 622.565,387.583 657.611,364.404 C719.703,323.337 938.265,313.526 992.611,364.404 C1024.64,394.388 979.155,526.405 1005.611,561.404 C1012.99,571.17 1024.35,577.279 1035.93,581.096 " fill="none" id="esm/JestReporter-&gt;jira-client" style="stroke: #000000; stroke-width: 0.5;"/><polygon fill="#000000" points="1040.89,582.595,1033.4277,576.1673,1036.1028,581.1517,1031.1185,583.8268,1040.89,582.595" style="stroke: #000000; stroke-width: 0.5;"/><!--MD5=[7212e1fd37e967051806c99666cb73e7]
link _esm_JestReporter_d to esm/jira.types--><path d="M488.111,572.53 C488.111,577.037 488.111,581.544 488.111,586.051 " fill="none" id="_esm_JestReporter_d-&gt;esm/jira.types" style="stroke: #000000; stroke-width: 1.0;"/><polygon fill="#000000" points="488.111,591.341,492.111,582.341,488.111,586.341,484.111,582.341,488.111,591.341" style="stroke: #000000; stroke-width: 1.0;"/><!--MD5=[fd912504a352b734cf9355166fad79e0]
link _esm_JestReporter_d to jira-client--><path d="M568.266,548.156 C668.004,540.785 844.315,533.62 992.611,558.404 C1001.347,559.864 1019,565.635 1036.05,571.649 " fill="none" id="_esm_JestReporter_d-&gt;jira-client" style="stroke: #000000; stroke-width: 1.0;"/><polygon fill="#000000" points="1040.83,573.348,1033.7036,566.5499,1036.1223,571.6636,1031.0086,574.0823,1040.83,573.348" style="stroke: #000000; stroke-width: 1.0;"/><!--MD5=[79022f06dc1b415141bb24c965e51c14]
link <b>release.config</b> to @sprucelabs--><path d="M982.553,625.772 C996.221,627.854 1010.86,630.085 1024.49,632.161 " fill="none" id="&lt;b&gt;release.config&lt;/b&gt;-&gt;@sprucelabs" style="stroke: #000000; stroke-width: 1.0;"/><polygon fill="#000000" points="1029.46,632.918,1021.1544,627.6248,1024.5155,632.1749,1019.9655,635.536,1029.46,632.918" style="stroke: #000000; stroke-width: 1.0;"/><!--MD5=[de52294464fa40096bea03f83417e98d]
link <b>src</b> to _src_JestReporter--><path d="M180.111,430.388 C180.111,425.777 180.111,421.167 180.111,416.556 " fill="none" id="&lt;b&gt;src&lt;/b&gt;-&gt;_src_JestReporter" style="stroke: #000000; stroke-width: 1.0;"/><polygon fill="#000000" points="180.111,411.553,176.111,420.553,180.111,416.553,184.111,420.553,180.111,411.553" style="stroke: #000000; stroke-width: 1.0;"/><!--MD5=[0563c4a7c6c90d2a28f974f1d1a5ee25]
link <b>src/integrationTest</b> to dotenv--><path d="M250.556,329.199 C424.238,305.16 872.144,252.762 992.611,332.404 C1054.48,373.307 1071.98,468.739 1076.82,512.17 " fill="none" id="&lt;b&gt;src/integrationTest&lt;/b&gt;-&gt;dotenv" style="stroke: #000000; stroke-width: 1.0;"/><polygon fill="#000000" points="1077.35,517.202,1080.3867,507.833,1076.827,512.2294,1072.4306,508.6697,1077.35,517.202" style="stroke: #000000; stroke-width: 1.0;"/><!--MD5=[5bc77f78637ac453bc46015784ba83df]
link <b>src/integrationTest</b> to _src_JestReporter--><path d="M180.111,358.606 C180.111,363.064 180.111,367.523 180.111,371.982 " fill="none" id="&lt;b&gt;src/integrationTest&lt;/b&gt;-&gt;_src_JestReporter" style="stroke: #000000; stroke-width: 1.0;"/><polygon fill="#000000" points="180.111,377.216,184.111,368.216,180.111,372.216,176.111,368.216,180.111,377.216" style="stroke: #000000; stroke-width: 1.0;"/><!--MD5=[ea15ed8de7a0600836fbc71594cfd52c]
link _src_JestReporter to @sprucelabs--><path d="M241.433,386.295 C347.876,373.363 563.228,353.798 620.611,398.404 C671.424,437.902 617.25,488.274 657.611,538.404 C721.185,617.365 762.065,618.63 860.611,642.404 C915.17,655.566 979.667,652.809 1024.28,648.159 " fill="none" id="_src_JestReporter-&gt;@sprucelabs" style="stroke: #000000; stroke-width: 0.5;"/><polygon fill="#000000" points="1029.35,647.614,1019.969,644.6146,1024.3795,648.1568,1020.8374,652.5673,1029.35,647.614" style="stroke: #000000; stroke-width: 0.5;"/><!--MD5=[d71e8e760b875e65506c4724acb1b1f2]
link _src_JestReporter to _errors_SpruceError--><path d="M241.258,390.794 C268.815,392.555 299.52,399.966 318.611,421.404 C388.582,499.975 285.979,814.532 355.611,893.4039 C370.597,910.3779 393.147,918.3571 415.362,921.724 " fill="none" id="_src_JestReporter-&gt;_errors_SpruceError" style="stroke: #000000; stroke-width: 0.5;"/><polygon fill="#000000" points="420.393,922.4107,412.0176,917.2287,415.4391,921.7336,410.9342,925.155,420.393,922.4107" style="stroke: #000000; stroke-width: 0.5;"/><!--MD5=[483421e27f3b4b92e6e1e852abb32ea3]
link _src_JestReporter to jira-client--><path d="M241.352,381.443 C274.824,374.9 317.326,367.671 355.611,364.404 C472.962,354.39 526.968,292.972 620.611,364.404 C670.076,402.136 610.355,458.94 657.611,499.404 C771.43,596.863 868.406,453.581 992.611,537.404 C1002.666,544.19 996.398,553.512 1005.611,561.404 C1014.29,568.841 1025.26,574.206 1036.03,578.055 " fill="none" id="_src_JestReporter-&gt;jira-client" style="stroke: #000000; stroke-width: 0.5;"/><polygon fill="#000000" points="1040.96,579.718,1033.7132,573.0484,1036.2229,578.118,1031.1532,580.6277,1040.96,579.718" style="stroke: #000000; stroke-width: 0.5;"/><!--MD5=[a76dc95687db9961f0eb7f09a9777ccb]
link _src_JestReporter to _src_jira_types--><path d="M241.202,400.295 C296.844,405.75 378.873,413.792 432.643,419.064 " fill="none" id="_src_JestReporter-&gt;_src_jira_types" style="stroke: #000000; stroke-width: 0.5;"/><polygon fill="#000000" points="437.757,419.565,429.191,414.7047,432.7809,419.0764,428.4092,422.6664,437.757,419.565" style="stroke: #000000; stroke-width: 0.5;"/><!--MD5=[a1188b7f84567bc0858d6e9213896479]
link <b>build/integrationTest.d</b> to _build_jira_types_d--><!--MD5=[e50716e3cdcbe3b8d15ab926f3fc3dc4]
link _build_jira_types_d to <b>errors/transitionNotFound.builder.d</b>--><!--MD5=[2d6fc2922db5ff3dffcad9e638f9dec1]
link <b>build/integrationTest.d</b> to <b>esm/integrationTest.d</b>--><!--MD5=[4b1a6ac911e3adce14d7f5c3985bb587]
link <b>esm/integrationTest.d</b> to _esm_jira_types_d--><script type="text/plantuml"><![CDATA[MD5=[852cb993237129a9fba5af51164ff915]
@startuml

scale max 1920 width
left to right direction

skinparam nodesep 19
skinparam ranksep 37
skinparam monochrome true
skinparam shadowing false
skinparam defaultFontName Tahoma
skinparam defaultFontSize 12
skinparam roundCorner 6
skinparam dpi 150
skinparam arrowColor black
skinparam arrowThickness 0.5
skinparam packageTitleAlignment left

skinparam usecase {
  borderThickness 0.5
}

skinparam rectangle {
  borderThickness 0.5
}

skinparam component {
  borderThickness 1
}


(<b>build</b>)
(<b>build/index.d</b>)
(<b>build/integrationTest</b>)
(<b>build/integrationTest.d</b>)
(build/JestReporter)
rectangle "<b>build/JestReporter.d</b>" as _build_JestReporter_d
(build/jira.types)
rectangle "<b>build/jira.types.d</b>" as _build_jira_types_d
(errors/SpruceError)
rectangle "errors/SpruceError" as _errors_SpruceError
rectangle "errors/SpruceError" as _errors_SpruceError
rectangle "<b>errors/SpruceError.d</b>" as _errors_SpruceError_d
rectangle "<b>errors/SpruceError.d</b>" as _errors_SpruceError_d
(<b>errors/transitionNotFound.builder</b>)
(<b>errors/transitionNotFound.builder</b>)
(<b>errors/transitionNotFound.builder</b>)
(<b>errors/transitionNotFound.builder.d</b>)
(<b>errors/transitionNotFound.builder.d</b>)
(<b>esm</b>)
(<b>esm/index.d</b>)
(<b>esm/integrationTest</b>)
(<b>esm/integrationTest.d</b>)
(esm/JestReporter)
rectangle "<b>esm/JestReporter.d</b>" as _esm_JestReporter_d
(esm/jira.types)
rectangle "<b>esm/jira.types.d</b>" as _esm_jira_types_d
(<b>release.config</b>)
(<b>src</b>)
(<b>src/integrationTest</b>)
rectangle "src/JestReporter" as _src_JestReporter
rectangle "src/jira.types" as _src_jira_types

package "Dependencies" {
  [@sprucelabs]
  [dotenv]
  [jira-client]
}

(<b>build</b>) -[thickness=1]> (build/JestReporter)
(<b>build/index.d</b>) -[thickness=1]> (build/JestReporter)
(<b>build/integrationTest</b>) -[thickness=1]> (build/JestReporter)
(<b>build/integrationTest</b>) ---[thickness=1]> [dotenv]
(build/JestReporter) ---> [@sprucelabs]
(build/JestReporter) --> (errors/SpruceError)
(build/JestReporter) ---> [jira-client]
_build_JestReporter_d -[thickness=1]> (build/jira.types)
_build_JestReporter_d ---[thickness=1]> [jira-client]
(errors/SpruceError) ----> [@sprucelabs]
_errors_SpruceError ----> [@sprucelabs]
_errors_SpruceError ----> [@sprucelabs]
_errors_SpruceError_d ----[thickness=1]> [@sprucelabs]
_errors_SpruceError_d ----[thickness=1]> [@sprucelabs]
(<b>errors/transitionNotFound.builder</b>) ----[thickness=1]> [@sprucelabs]
(<b>errors/transitionNotFound.builder</b>) ----[thickness=1]> [@sprucelabs]
(<b>errors/transitionNotFound.builder</b>) ----[thickness=1]> [@sprucelabs]
(<b>esm</b>) -[thickness=1]> (esm/JestReporter)
(<b>esm/index.d</b>) -[thickness=1]> (esm/JestReporter)
(<b>esm/integrationTest</b>) ----[thickness=1]> [dotenv]
(<b>esm/integrationTest</b>) -[thickness=1]> (esm/JestReporter)
(esm/JestReporter) ----> [@sprucelabs]
(esm/JestReporter) --> _errors_SpruceError
(esm/JestReporter) ----> [jira-client]
_esm_JestReporter_d -[thickness=1]> (esm/jira.types)
_esm_JestReporter_d ----[thickness=1]> [jira-client]
(<b>release.config</b>) --[thickness=1]> [@sprucelabs]
(<b>src</b>) -[thickness=1]> _src_JestReporter
(<b>src/integrationTest</b>) ---[thickness=1]> [dotenv]
(<b>src/integrationTest</b>) -[thickness=1]> _src_JestReporter
_src_JestReporter ---> [@sprucelabs]
_src_JestReporter --> _errors_SpruceError
_src_JestReporter ---> [jira-client]
_src_JestReporter --> _src_jira_types

@enduml


' View and edit on https://arkit.pro
]]></script></g></svg>